<svg width="51" height="59" viewBox="0 0 51 59" fill="none" xmlns="http://www.w3.org/2000/svg">
<path d="M16.8855 17.5158C16.8385 14.3659 20.2823 12.4004 22.9705 14.0429L44.021 26.9043C46.6185 28.4913 46.5619 32.2828 43.9182 33.7916L23.2355 45.596C20.5918 47.1049 17.2985 45.2253 17.2532 42.1816L16.8855 17.5158Z" fill="white"/>
<circle cx="21" cy="48" r="4" fill="white"/>
<circle cx="25.5001" cy="51.5" r="6.5" fill="#52459F"/>
<circle cx="20.6112" cy="11.6033" r="3.5" fill="white"/>
<path d="M33.0001 8C33.0001 11.866 29.8661 15 26.0001 15C24.0414 15 22.2706 14.1955 21.0001 12.8989C19.7629 11.6364 19.0001 9.90727 19.0001 8C19.0001 4.13401 22.1341 1 26.0001 1C29.8661 1 33.0001 4.13401 33.0001 8Z" fill="#52459F"/>
</svg>
