<svg width="97" height="51" viewBox="0 0 97 51" fill="none" xmlns="http://www.w3.org/2000/svg">
<path d="M39.7155 21.0803C40.885 21.0803 41.8992 21.3087 42.758 21.7655C43.6351 22.2041 44.3112 22.8802 44.7863 23.7938C45.2797 24.6892 45.5264 25.8039 45.5264 27.1378V35.4978H44.1559V27.2475C44.1559 25.6394 43.7448 24.4151 42.9225 23.5746C42.1185 22.734 40.9855 22.3137 39.5237 22.3137C38.409 22.3137 37.4405 22.5421 36.6183 22.999C35.796 23.4558 35.1655 24.0954 34.727 24.9176C34.3067 25.7399 34.0966 26.7267 34.0966 27.8779V35.4978H32.7261V15.1598H34.0966V25.1643L33.8499 24.7258C34.2884 23.5928 35.0102 22.7066 36.0152 22.067C37.0203 21.4092 38.2537 21.0803 39.7155 21.0803Z" fill="white"/>
<path d="M51.1687 35.4978V21.1899H52.5392V35.4978H51.1687ZM51.854 17.7089C51.5433 17.7089 51.2784 17.5993 51.0591 17.38C50.8398 17.1607 50.7302 16.9049 50.7302 16.6125C50.7302 16.3019 50.8398 16.0369 51.0591 15.8176C51.2784 15.5983 51.5433 15.4887 51.854 15.4887C52.1829 15.4887 52.4478 15.5983 52.6489 15.8176C52.8681 16.0186 52.9778 16.2745 52.9778 16.5851C52.9778 16.8957 52.8681 17.1607 52.6489 17.38C52.4478 17.5993 52.1829 17.7089 51.854 17.7089Z" fill="white"/>
<path d="M62.4819 35.6074C61.221 35.6074 60.2525 35.2602 59.5764 34.5659C58.9186 33.8715 58.5897 32.9213 58.5897 31.7152V18.0652H59.9602V31.5782C59.9602 32.4919 60.1886 33.1954 60.6454 33.6887C61.1022 34.1821 61.7601 34.4288 62.6189 34.4288C63.5143 34.4288 64.2544 34.1638 64.8391 33.6339L65.4147 34.5933C65.0492 34.9405 64.6015 35.1963 64.0716 35.3607C63.56 35.5252 63.0301 35.6074 62.4819 35.6074ZM55.9584 22.3685V21.1899H64.5102V22.3685H55.9584Z" fill="white"/>
<path d="M74.4019 35.6074C73.0131 35.6074 71.7705 35.2968 70.6742 34.6755C69.596 34.0542 68.7372 33.1954 68.0976 32.099C67.4764 31.0026 67.1657 29.7509 67.1657 28.3439C67.1657 26.9185 67.4764 25.6577 68.0976 24.5613C68.7372 23.4649 69.596 22.6152 70.6742 22.0122C71.7705 21.3909 73.0131 21.0803 74.4019 21.0803C75.5531 21.0803 76.5946 21.2996 77.5266 21.7381C78.4768 22.1767 79.2442 22.8345 79.829 23.7116L78.8148 24.4517C78.3032 23.7208 77.6636 23.1817 76.8962 22.8345C76.1287 22.4873 75.2973 22.3137 74.4019 22.3137C73.2872 22.3137 72.2822 22.5695 71.3868 23.0812C70.5097 23.5746 69.8153 24.2781 69.3037 25.1917C68.8103 26.0871 68.5636 27.1378 68.5636 28.3439C68.5636 29.5499 68.8103 30.6097 69.3037 31.5234C69.8153 32.4188 70.5097 33.1223 71.3868 33.6339C72.2822 34.1273 73.2872 34.374 74.4019 34.374C75.2973 34.374 76.1287 34.2004 76.8962 33.8532C77.6636 33.506 78.3032 32.967 78.8148 32.236L79.829 32.9761C79.2442 33.8532 78.4768 34.511 77.5266 34.9496C76.5946 35.3881 75.5531 35.6074 74.4019 35.6074Z" fill="white"/>
<path d="M90.6804 21.0803C91.8499 21.0803 92.8641 21.3087 93.7229 21.7655C94.6 22.2041 95.2761 22.8802 95.7512 23.7938C96.2446 24.6892 96.4913 25.8039 96.4913 27.1378V35.4978H95.1208V27.2475C95.1208 25.6394 94.7097 24.4151 93.8874 23.5746C93.0834 22.734 91.9504 22.3137 90.4886 22.3137C89.3739 22.3137 88.4054 22.5421 87.5831 22.999C86.7609 23.4558 86.1304 24.0954 85.6919 24.9176C85.2716 25.7399 85.0615 26.7267 85.0615 27.8779V35.4978H83.691V15.1598H85.0615V25.1643L84.8148 24.7258C85.2533 23.5928 85.9751 22.7066 86.9801 22.067C87.9852 21.4092 89.2186 21.0803 90.6804 21.0803Z" fill="white"/>
<path d="M12.8984 31.4139L1.03546 24.2183C0.498412 23.8925 0.391124 23.1581 0.812536 22.6924L17.6458 4.08724C18.3926 3.26177 19.7265 4.09058 19.3172 5.12581L13.9777 18.6318C13.8157 19.0414 13.9409 19.5089 14.286 19.7827L26.9014 29.7949C27.3964 30.1878 27.4074 30.9357 26.9241 31.3429L7.53168 47.6828C6.69105 48.3912 5.48921 47.4217 6.00354 46.4502L13.2636 32.7368C13.5114 32.2687 13.3513 31.6886 12.8984 31.4139Z" fill="#E38071"/>
</svg>
